<svg xmlns="http://www.w3.org/2000/svg" viewBox="0 0 128 128" role="img" aria-label="CrowdVision AI">
  <defs>
    <linearGradient id="g" x1="18" y1="18" x2="110" y2="110" gradientUnits="userSpaceOnUse">
      <stop stop-color="#24e6a2"/>
      <stop offset="0.55" stop-color="#d9ef4e"/>
      <stop offset="1" stop-color="#f6b83f"/>
    </linearGradient>
    <filter id="s" x="-20%" y="-20%" width="140%" height="140%">
      <feDropShadow dx="0" dy="10" stdDeviation="10" flood-color="#20df98" flood-opacity="0.34"/>
    </filter>
  </defs>
  <rect width="128" height="128" rx="32" fill="#020604"/>
  <rect x="16" y="16" width="96" height="96" rx="25" fill="url(#g)" filter="url(#s)"/>
  <path d="M40 44c5-5 12-8 21-8 10 0 18 4 24 11l-11 10c-3-4-7-6-13-6-8 0-14 6-14 14s6 14 14 14c6 0 10-2 13-6l11 10c-6 7-14 11-24 11-9 0-16-3-21-8-6-5-9-13-9-21s3-16 9-21Z" fill="#04110a"/>
  <path d="m82 37 14 0-20 54H61L41 37h15l13 38 13-38Z" fill="#04110a"/>
</svg>
